<svg width="16" height="16" viewBox="0 0 36 40" fill="none" xmlns="http://www.w3.org/2000/svg">
<path d="M35.0607 13.0607C35.6464 12.4749 35.6464 11.5251 35.0607 10.9393L25.5147 1.3934C24.9289 0.807612 23.9792 0.807612 23.3934 1.3934C22.8076 1.97918 22.8076 2.92893 23.3934 3.51472L31.8787 12L23.3934 20.4853C22.8076 21.0711 22.8076 22.0208 23.3934 22.6066C23.9792 23.1924 24.9289 23.1924 25.5147 22.6066L35.0607 13.0607ZM2 13.5H34V10.5H2V13.5Z" fill="black"/>
<path d="M0.93934 29.0607C0.353553 28.4749 0.353553 27.5251 0.93934 26.9393L10.4853 17.3934C11.0711 16.8076 12.0208 16.8076 12.6066 17.3934C13.1924 17.9792 13.1924 18.9289 12.6066 19.5147L4.12132 28L12.6066 36.4853C13.1924 37.0711 13.1924 38.0208 12.6066 38.6066C12.0208 39.1924 11.0711 39.1924 10.4853 38.6066L0.93934 29.0607ZM2 26.5H34V29.5H2V26.5Z" fill="black"/>
<line x1="23.9923" y1="2.38997" x2="12.266" y2="37.3697" stroke="black" stroke-width="2" stroke-linecap="round"/>
</svg>
