<svg width="90" height="90" viewBox="0 0 90 90" fill="none" xmlns="http://www.w3.org/2000/svg">
<rect width="90" height="90" rx="20" fill="#D3E0F9"/>
<path d="M64.6001 49H62.7536L68.0945 34.4545H69.9126L75.2536 49H73.407L69.0604 36.7557H68.9467L64.6001 49ZM65.282 43.3182H72.7251V44.8807H65.282V43.3182Z" fill="black"/>
<g style="mix-blend-mode:darken" filter="url(#filter0_d_3_7)">
<path d="M29.6005 68H23.1374L41.8306 17.0909H48.1942L66.8874 68H60.4244L45.2113 25.1449H44.8136L29.6005 68ZM31.9869 48.1136H58.038V53.5824H31.9869V48.1136Z" fill="black"/>
<path d="M29.6005 68V68.5H29.9536L30.0717 68.1673L29.6005 68ZM23.1374 68L22.6681 67.8277L22.4212 68.5H23.1374V68ZM41.8306 17.0909V16.5909H41.4816L41.3613 16.9186L41.8306 17.0909ZM48.1942 17.0909L48.6636 16.9186L48.5433 16.5909H48.1942V17.0909ZM66.8874 68V68.5H67.6037L67.3568 67.8277L66.8874 68ZM60.4244 68L59.9532 68.1673L60.0713 68.5H60.4244V68ZM45.2113 25.1449L45.6825 24.9776L45.5644 24.6449H45.2113V25.1449ZM44.8136 25.1449V24.6449H44.4605L44.3424 24.9776L44.8136 25.1449ZM31.9869 48.1136V47.6136H31.4869V48.1136H31.9869ZM58.038 48.1136H58.538V47.6136H58.038V48.1136ZM58.038 53.5824V54.0824H58.538V53.5824H58.038ZM31.9869 53.5824H31.4869V54.0824H31.9869V53.5824ZM29.6005 67.5H23.1374V68.5H29.6005V67.5ZM23.6068 68.1723L42.3 17.2633L41.3613 16.9186L22.6681 67.8277L23.6068 68.1723ZM41.8306 17.5909H48.1942V16.5909H41.8306V17.5909ZM47.7249 17.2633L66.4181 68.1723L67.3568 67.8277L48.6636 16.9186L47.7249 17.2633ZM66.8874 67.5H60.4244V68.5H66.8874V67.5ZM60.8956 67.8327L45.6825 24.9776L44.7401 25.3122L59.9532 68.1673L60.8956 67.8327ZM45.2113 24.6449H44.8136V25.6449H45.2113V24.6449ZM44.3424 24.9776L29.1293 67.8327L30.0717 68.1673L45.2848 25.3122L44.3424 24.9776ZM31.9869 48.6136H58.038V47.6136H31.9869V48.6136ZM57.538 48.1136V53.5824H58.538V48.1136H57.538ZM58.038 53.0824H31.9869V54.0824H58.038V53.0824ZM32.4869 53.5824V48.1136H31.4869V53.5824H32.4869Z" fill="black"/>
</g>
<defs>
<filter id="filter0_d_3_7" x="20.1374" y="17.0909" width="51.75" height="59.9091" filterUnits="userSpaceOnUse" color-interpolation-filters="sRGB">
<feFlood flood-opacity="0" result="BackgroundImageFix"/>
<feColorMatrix in="SourceAlpha" type="matrix" values="0 0 0 0 0 0 0 0 0 0 0 0 0 0 0 0 0 0 127 0" result="hardAlpha"/>
<feOffset dx="1" dy="5"/>
<feGaussianBlur stdDeviation="2"/>
<feComposite in2="hardAlpha" operator="out"/>
<feColorMatrix type="matrix" values="0 0 0 0 0 0 0 0 0 0 0 0 0 0 0 0 0 0 0.25 0"/>
<feBlend mode="normal" in2="BackgroundImageFix" result="effect1_dropShadow_3_7"/>
<feBlend mode="normal" in="SourceGraphic" in2="effect1_dropShadow_3_7" result="shape"/>
</filter>
</defs>
</svg>
