<svg width="16" height="16" viewBox="0 0 16 16" fill="none" xmlns="http://www.w3.org/2000/svg">
<circle cx="8" cy="8" r="8" fill="#F9F7F7"/>
<path d="M10.0034 5.45455C9.95224 5.02273 9.74485 4.6875 9.38121 4.44886C9.01758 4.21023 8.57156 4.09091 8.04315 4.09091C7.65678 4.09091 7.31871 4.15341 7.02894 4.27841C6.74201 4.40341 6.51758 4.57528 6.35565 4.79403C6.19656 5.01278 6.11701 5.26136 6.11701 5.53977C6.11701 5.77273 6.17241 5.97301 6.2832 6.14062C6.39684 6.3054 6.54173 6.44318 6.71786 6.55398C6.894 6.66193 7.07866 6.75142 7.27184 6.82244C7.46502 6.89062 7.64258 6.94602 7.80451 6.98864L8.69087 7.22727C8.91815 7.28693 9.17099 7.36932 9.4494 7.47443C9.73065 7.57955 9.99911 7.72301 10.2548 7.90483C10.5133 8.08381 10.7264 8.31392 10.894 8.59517C11.0616 8.87642 11.1454 9.22159 11.1454 9.63068C11.1454 10.1023 11.0218 10.5284 10.7747 10.9091C10.5304 11.2898 10.1724 11.5923 9.70082 11.8168C9.23207 12.0412 8.66246 12.1534 7.99201 12.1534C7.36701 12.1534 6.82582 12.0526 6.36843 11.8509C5.91388 11.6491 5.55593 11.3679 5.29457 11.0071C5.03604 10.6463 4.88974 10.2273 4.85565 9.75H5.94656C5.97496 10.0795 6.08576 10.3523 6.27894 10.5682C6.47496 10.7812 6.72212 10.9403 7.02042 11.0455C7.32156 11.1477 7.64542 11.1989 7.99201 11.1989C8.39542 11.1989 8.75764 11.1335 9.07866 11.0028C9.39968 10.8693 9.65394 10.6847 9.84144 10.4489C10.0289 10.2102 10.1227 9.93182 10.1227 9.61364C10.1227 9.32386 10.0417 9.08807 9.87979 8.90625C9.71786 8.72443 9.50479 8.5767 9.24059 8.46307C8.97639 8.34943 8.69087 8.25 8.38406 8.16477L7.31019 7.85795C6.62837 7.66193 6.0886 7.3821 5.69087 7.01847C5.29315 6.65483 5.09428 6.17898 5.09428 5.59091C5.09428 5.10227 5.22638 4.67614 5.49059 4.3125C5.75763 3.94602 6.11559 3.66193 6.56445 3.46023C7.01616 3.25568 7.52042 3.15341 8.07724 3.15341C8.63974 3.15341 9.13974 3.25426 9.57724 3.45597C10.0147 3.65483 10.3613 3.92756 10.617 4.27415C10.8755 4.62074 11.0119 5.0142 11.0261 5.45455H10.0034Z" fill="#378E40"/>
</svg>
