<svg width="18" height="18" viewBox="0 0 18 18" fill="none" xmlns="http://www.w3.org/2000/svg">
<circle cx="9" cy="9" r="9" fill="white"/>
<path d="M10.6611 9.56836V12.9082C10.6611 13.5527 10.6201 13.96 10.5381 14.1299C10.4619 14.2939 10.3242 14.4258 10.125 14.5254C9.92578 14.625 9.55371 14.6748 9.00879 14.6748V15H15.1084V14.6748C14.5576 14.6748 14.1826 14.625 13.9834 14.5254C13.79 14.4199 13.6523 14.2852 13.5703 14.1211C13.4941 13.957 13.4561 13.5527 13.4561 12.9082V5.17383C13.4561 4.5293 13.4941 4.125 13.5703 3.96094C13.6523 3.79102 13.793 3.65625 13.9922 3.55664C14.1914 3.45703 14.5635 3.40723 15.1084 3.40723V3.08203H9.57129C8.12988 3.08203 7.0752 3.18164 6.40723 3.38086C5.73926 3.58008 5.19434 3.94922 4.77246 4.48828C4.35059 5.02148 4.13965 5.64844 4.13965 6.36914C4.13965 7.24805 4.45605 7.97461 5.08887 8.54883C5.49316 8.91211 6.05859 9.18457 6.78516 9.36621L3.91992 13.4004C3.54492 13.9219 3.27832 14.2471 3.12012 14.376C2.87988 14.5576 2.60156 14.6572 2.28516 14.6748V15H6.03809L9.87891 9.56836H10.6611ZM10.6611 3.72363V8.94434H10.1602C9.3457 8.94434 8.73633 8.87109 8.33203 8.72461C7.92773 8.57227 7.6084 8.30273 7.37402 7.91602C7.14551 7.52344 7.03125 7.01367 7.03125 6.38672C7.03125 5.47852 7.24219 4.80762 7.66406 4.37402C8.0918 3.94043 8.77734 3.72363 9.7207 3.72363H10.6611Z" fill="#3FAFC7"/>
</svg>
