<?xml version="1.0" standalone="no"?>
<!DOCTYPE svg PUBLIC "-//W3C//DTD SVG 20010904//EN"
 "http://www.w3.org/TR/2001/REC-SVG-20010904/DTD/svg10.dtd">
<svg version="1.0" xmlns="http://www.w3.org/2000/svg"
 width="1024.000000pt" height="26.000000pt" viewBox="0 0 1024.000000 26.000000"
 preserveAspectRatio="xMidYMid meet">

<g transform="translate(0.000000,26.000000) scale(0.100000,-0.100000)"
fill="#000000" stroke="none">
<path d="M80 75 c0 -31 15 -33 25 -2 l7 22 8 -25 8 -25 1 28 c1 22 -3 27 -24
27 -20 0 -25 -5 -25 -25z"/>
<path d="M140 70 c0 -16 4 -30 9 -30 25 0 41 14 41 36 0 19 -5 24 -25 24 -21
0 -25 -5 -25 -30z m37 -2 c-3 -8 -6 -5 -6 6 -1 11 2 17 5 13 3 -3 4 -12 1 -19z"/>
<path d="M200 75 c0 -32 30 -34 31 -2 1 21 1 21 9 -3 8 -24 8 -24 9 -2 1 29
18 29 24 0 4 -20 4 -19 6 5 1 25 -2 27 -39 27 -36 0 -40 -2 -40 -25z"/>
</g>
</svg>
