<svg width="15" height="9" viewBox="0 0 15 9" fill="none" xmlns="http://www.w3.org/2000/svg">
<g clip-path="url(#clip0_104_6)">
<path d="M0 0H15V7.71429H7.5V9H4.16667V7.71429H0V0ZM0.833333 6.42857H2.5V2.57143H3.33333V6.42857H4.16667V1.28571H0.833333V6.42857ZM5 1.28571V7.71429H6.66667V6.42857H8.33333V1.28571H5ZM6.66667 2.57143H7.5V5.14286H6.66667V2.57143ZM9.16667 1.28571V6.42857H10.8333V2.57143H11.6667V6.42857H12.5V2.57143H13.3333V6.42857H14.1667V1.28571H9.16667Z" fill="#CB3837"/>
<path d="M0.833328 6.42857H2.49999V2.57143H3.33333V6.42857H4.16666V1.28571H0.833328V6.42857Z" fill="white"/>
<path d="M5 1.28571V7.71428H6.66667V6.42857H8.33333V1.28571H5ZM7.5 5.14286H6.66667V2.57143H7.5V5.14286Z" fill="white"/>
<path d="M9.16667 1.28571V6.42857H10.8333V2.57143H11.6667V6.42857H12.5V2.57143H13.3333V6.42857H14.1667V1.28571H9.16667Z" fill="white"/>
</g>
<defs>
<clipPath id="clip0_104_6">
<rect width="15" height="9" fill="white"/>
</clipPath>
</defs>
</svg>
