<svg width="657" height="99" viewBox="0 0 657 99" fill="none" xmlns="http://www.w3.org/2000/svg">
<path d="M11.7241 42L0.587713 1.27273H5.59908L14.1104 34.4432H14.5082L23.1786 1.27273H28.7468L37.4173 34.4432H37.815L46.3263 1.27273H51.3377L40.2013 42H35.1104L26.1218 9.54545H25.8036L16.815 42H11.7241ZM66.8093 42.6364C63.8661 42.6364 61.3273 41.9867 59.1928 40.6875C57.0716 39.375 55.4343 37.5455 54.2809 35.1989C53.1407 32.839 52.5707 30.0947 52.5707 26.9659C52.5707 23.8371 53.1407 21.0795 54.2809 18.6932C55.4343 16.2936 57.0385 14.4242 59.0934 13.0852C61.1616 11.733 63.5745 11.0568 66.332 11.0568C67.9229 11.0568 69.494 11.322 71.0451 11.8523C72.5962 12.3826 74.0082 13.2443 75.2809 14.4375C76.5536 15.6174 77.5678 17.1818 78.3235 19.1307C79.0792 21.0795 79.457 23.4792 79.457 26.3295V28.3182H55.9116V24.2614H74.6843C74.6843 22.5379 74.3396 21 73.6502 19.6477C72.9741 18.2955 72.0063 17.2282 70.7468 16.446C69.5006 15.6638 68.029 15.2727 66.332 15.2727C64.4627 15.2727 62.8453 15.7367 61.4798 16.6648C60.1275 17.5795 59.0868 18.7727 58.3576 20.2443C57.6284 21.7159 57.2638 23.2936 57.2638 24.9773V27.6818C57.2638 29.9886 57.6616 31.9441 58.457 33.5483C59.2657 35.1392 60.386 36.3523 61.8178 37.1875C63.2496 38.0095 64.9135 38.4205 66.8093 38.4205C68.0423 38.4205 69.1559 38.2481 70.1502 37.9034C71.1578 37.5455 72.0262 37.0152 72.7553 36.3125C73.4845 35.5966 74.0479 34.7083 74.4457 33.6477L78.9798 34.9205C78.5025 36.4583 77.7004 37.8106 76.5735 38.9773C75.4466 40.1307 74.0546 41.0322 72.3974 41.6818C70.7402 42.3182 68.8775 42.6364 66.8093 42.6364ZM91.2894 1.27273V42H86.5962V1.27273H91.2894ZM112.294 42.6364C109.431 42.6364 106.965 41.9602 104.897 40.608C102.828 39.2557 101.238 37.393 100.124 35.0199C99.0103 32.6468 98.4535 29.9356 98.4535 26.8864C98.4535 23.7841 99.0236 21.0464 100.164 18.6733C101.317 16.2869 102.921 14.4242 104.976 13.0852C107.044 11.733 109.457 11.0568 112.215 11.0568C114.363 11.0568 116.298 11.4545 118.022 12.25C119.745 13.0455 121.157 14.1591 122.257 15.5909C123.358 17.0227 124.041 18.6932 124.306 20.6023H119.613C119.255 19.2102 118.459 17.9773 117.226 16.9034C116.007 15.8163 114.363 15.2727 112.294 15.2727C110.465 15.2727 108.861 15.75 107.482 16.7045C106.116 17.6458 105.049 18.9782 104.28 20.7017C103.525 22.4119 103.147 24.4205 103.147 26.7273C103.147 29.0871 103.518 31.142 104.26 32.892C105.016 34.642 106.077 36.0009 107.442 36.9688C108.821 37.9366 110.438 38.4205 112.294 38.4205C113.514 38.4205 114.621 38.2083 115.615 37.7841C116.61 37.3598 117.452 36.75 118.141 35.9545C118.83 35.1591 119.321 34.2045 119.613 33.0909H124.306C124.041 34.8939 123.384 36.518 122.337 37.9631C121.303 39.3949 119.931 40.535 118.221 41.3835C116.524 42.2188 114.548 42.6364 112.294 42.6364ZM143.576 42.6364C140.818 42.6364 138.399 41.9801 136.317 40.6676C134.249 39.3551 132.632 37.5189 131.465 35.1591C130.311 32.7992 129.735 30.0417 129.735 26.8864C129.735 23.7045 130.311 20.9271 131.465 18.554C132.632 16.1809 134.249 14.3381 136.317 13.0256C138.399 11.7131 140.818 11.0568 143.576 11.0568C146.333 11.0568 148.746 11.7131 150.814 13.0256C152.896 14.3381 154.513 16.1809 155.667 18.554C156.833 20.9271 157.417 23.7045 157.417 26.8864C157.417 30.0417 156.833 32.7992 155.667 35.1591C154.513 37.5189 152.896 39.3551 150.814 40.6676C148.746 41.9801 146.333 42.6364 143.576 42.6364ZM143.576 38.4205C145.67 38.4205 147.394 37.8835 148.746 36.8097C150.098 35.7358 151.099 34.3239 151.749 32.5739C152.399 30.8239 152.723 28.928 152.723 26.8864C152.723 24.8447 152.399 22.9422 151.749 21.179C151.099 19.4157 150.098 17.9905 148.746 16.9034C147.394 15.8163 145.67 15.2727 143.576 15.2727C141.481 15.2727 139.757 15.8163 138.405 16.9034C137.053 17.9905 136.052 19.4157 135.402 21.179C134.753 22.9422 134.428 24.8447 134.428 26.8864C134.428 28.928 134.753 30.8239 135.402 32.5739C136.052 34.3239 137.053 35.7358 138.405 36.8097C139.757 37.8835 141.481 38.4205 143.576 38.4205ZM164.581 42V11.4545H169.115V16.2273H169.512C170.149 14.5966 171.176 13.3305 172.595 12.429C174.013 11.5142 175.717 11.0568 177.706 11.0568C179.721 11.0568 181.398 11.5142 182.737 12.429C184.089 13.3305 185.143 14.5966 185.899 16.2273H186.217C186.999 14.6496 188.172 13.3968 189.737 12.4688C191.301 11.5275 193.177 11.0568 195.365 11.0568C198.096 11.0568 200.33 11.9119 202.066 13.6222C203.803 15.3191 204.672 17.964 204.672 21.5568V42H199.978V21.5568C199.978 19.303 199.362 17.6922 198.129 16.7244C196.896 15.7566 195.444 15.2727 193.774 15.2727C191.626 15.2727 189.962 15.9223 188.782 17.2216C187.602 18.5076 187.012 20.1383 187.012 22.1136V42H182.24V21.0795C182.24 19.3428 181.676 17.9441 180.549 16.8835C179.422 15.8097 177.971 15.2727 176.194 15.2727C174.975 15.2727 173.834 15.5975 172.774 16.2472C171.726 16.8968 170.878 17.7983 170.228 18.9517C169.592 20.0919 169.274 21.411 169.274 22.9091V42H164.581ZM226.059 42.6364C223.116 42.6364 220.577 41.9867 218.443 40.6875C216.322 39.375 214.684 37.5455 213.531 35.1989C212.391 32.839 211.821 30.0947 211.821 26.9659C211.821 23.8371 212.391 21.0795 213.531 18.6932C214.684 16.2936 216.288 14.4242 218.343 13.0852C220.412 11.733 222.824 11.0568 225.582 11.0568C227.173 11.0568 228.744 11.322 230.295 11.8523C231.846 12.3826 233.258 13.2443 234.531 14.4375C235.804 15.6174 236.818 17.1818 237.574 19.1307C238.329 21.0795 238.707 23.4792 238.707 26.3295V28.3182H215.162V24.2614H233.934C233.934 22.5379 233.59 21 232.9 19.6477C232.224 18.2955 231.256 17.2282 229.997 16.446C228.751 15.6638 227.279 15.2727 225.582 15.2727C223.713 15.2727 222.095 15.7367 220.73 16.6648C219.377 17.5795 218.337 18.7727 217.608 20.2443C216.878 21.7159 216.514 23.2936 216.514 24.9773V27.6818C216.514 29.9886 216.912 31.9441 217.707 33.5483C218.516 35.1392 219.636 36.3523 221.068 37.1875C222.5 38.0095 224.163 38.4205 226.059 38.4205C227.292 38.4205 228.406 38.2481 229.4 37.9034C230.408 37.5455 231.276 37.0152 232.005 36.3125C232.734 35.5966 233.298 34.7083 233.696 33.6477L238.23 34.9205C237.752 36.4583 236.95 37.8106 235.824 38.9773C234.697 40.1307 233.305 41.0322 231.647 41.6818C229.99 42.3182 228.127 42.6364 226.059 42.6364ZM274.88 11.4545V15.4318H259.051V11.4545H274.88ZM263.664 4.13636H268.358V33.25C268.358 34.5758 268.55 35.5701 268.934 36.233C269.332 36.8826 269.836 37.3201 270.446 37.5455C271.069 37.7576 271.725 37.8636 272.414 37.8636C272.931 37.8636 273.356 37.8371 273.687 37.7841C274.019 37.7178 274.284 37.6648 274.483 37.625L275.437 41.8409C275.119 41.9602 274.675 42.0795 274.105 42.1989C273.535 42.3314 272.812 42.3977 271.937 42.3977C270.611 42.3977 269.312 42.1127 268.039 41.5426C266.78 40.9725 265.733 40.1042 264.897 38.9375C264.075 37.7708 263.664 36.2992 263.664 34.5227V4.13636ZM294.021 42.6364C291.263 42.6364 288.844 41.9801 286.762 40.6676C284.694 39.3551 283.077 37.5189 281.91 35.1591C280.757 32.7992 280.18 30.0417 280.18 26.8864C280.18 23.7045 280.757 20.9271 281.91 18.554C283.077 16.1809 284.694 14.3381 286.762 13.0256C288.844 11.7131 291.263 11.0568 294.021 11.0568C296.779 11.0568 299.191 11.7131 301.26 13.0256C303.341 14.3381 304.958 16.1809 306.112 18.554C307.279 20.9271 307.862 23.7045 307.862 26.8864C307.862 30.0417 307.279 32.7992 306.112 35.1591C304.958 37.5189 303.341 39.3551 301.26 40.6676C299.191 41.9801 296.779 42.6364 294.021 42.6364ZM294.021 38.4205C296.116 38.4205 297.839 37.8835 299.191 36.8097C300.544 35.7358 301.545 34.3239 302.194 32.5739C302.844 30.8239 303.169 28.928 303.169 26.8864C303.169 24.8447 302.844 22.9422 302.194 21.179C301.545 19.4157 300.544 17.9905 299.191 16.9034C297.839 15.8163 296.116 15.2727 294.021 15.2727C291.926 15.2727 290.203 15.8163 288.85 16.9034C287.498 17.9905 286.497 19.4157 285.848 21.179C285.198 22.9422 284.873 24.8447 284.873 26.8864C284.873 28.928 285.198 30.8239 285.848 32.5739C286.497 34.3239 287.498 35.7358 288.85 36.8097C290.203 37.8835 291.926 38.4205 294.021 38.4205ZM330.776 42V11.4545H335.31V16.2273H335.708C336.344 14.5966 337.372 13.3305 338.79 12.429C340.209 11.5142 341.912 11.0568 343.901 11.0568C345.916 11.0568 347.593 11.5142 348.932 12.429C350.284 13.3305 351.338 14.5966 352.094 16.2273H352.412C353.194 14.6496 354.368 13.3968 355.932 12.4688C357.497 11.5275 359.373 11.0568 361.56 11.0568C364.291 11.0568 366.525 11.9119 368.262 13.6222C369.998 15.3191 370.867 17.964 370.867 21.5568V42H366.174V21.5568C366.174 19.303 365.557 17.6922 364.324 16.7244C363.091 15.7566 361.64 15.2727 359.969 15.2727C357.821 15.2727 356.158 15.9223 354.978 17.2216C353.798 18.5076 353.208 20.1383 353.208 22.1136V42H348.435V21.0795C348.435 19.3428 347.872 17.9441 346.745 16.8835C345.618 15.8097 344.166 15.2727 342.39 15.2727C341.17 15.2727 340.03 15.5975 338.969 16.2472C337.922 16.8968 337.073 17.7983 336.424 18.9517C335.787 20.0919 335.469 21.411 335.469 22.9091V42H330.776ZM381.377 53.4545C380.581 53.4545 379.872 53.3883 379.249 53.2557C378.626 53.1364 378.195 53.017 377.956 52.8977L379.15 48.7614C380.29 49.053 381.297 49.1591 382.172 49.0795C383.047 49 383.823 48.6089 384.499 47.9062C385.188 47.2169 385.818 46.0966 386.388 44.5455L387.263 42.1591L375.968 11.4545H381.059L389.49 35.7955H389.809L398.24 11.4545H403.331L390.365 46.4545C389.782 48.0322 389.06 49.3381 388.198 50.3722C387.336 51.4195 386.335 52.1951 385.195 52.6989C384.068 53.2027 382.795 53.4545 381.377 53.4545ZM450.253 11.4545L438.958 42H434.185L422.89 11.4545H427.98L436.412 35.7955H436.73L445.162 11.4545H450.253ZM456.448 42V11.4545H461.141V42H456.448ZM458.834 6.36364C457.919 6.36364 457.131 6.05208 456.468 5.42898C455.818 4.80587 455.493 4.05682 455.493 3.18182C455.493 2.30682 455.818 1.55776 456.468 0.934658C457.131 0.311553 457.919 0 458.834 0C459.749 0 460.531 0.311553 461.181 0.934658C461.844 1.55776 462.175 2.30682 462.175 3.18182C462.175 4.05682 461.844 4.80587 461.181 5.42898C460.531 6.05208 459.749 6.36364 458.834 6.36364ZM491.373 18.2955L487.157 19.4886C486.892 18.786 486.501 18.1032 485.984 17.4403C485.48 16.7642 484.791 16.2074 483.916 15.7699C483.041 15.3324 481.921 15.1136 480.555 15.1136C478.686 15.1136 477.128 15.5445 475.882 16.4062C474.649 17.2547 474.032 18.3352 474.032 19.6477C474.032 20.8144 474.457 21.7358 475.305 22.4119C476.154 23.0881 477.479 23.6515 479.282 24.1023L483.816 25.2159C486.547 25.8788 488.583 26.893 489.922 28.2585C491.261 29.6108 491.93 31.3542 491.93 33.4886C491.93 35.2386 491.426 36.803 490.419 38.1818C489.424 39.5606 488.032 40.6477 486.243 41.4432C484.453 42.2386 482.371 42.6364 479.998 42.6364C476.883 42.6364 474.304 41.9602 472.262 40.608C470.221 39.2557 468.928 37.2803 468.385 34.6818L472.839 33.5682C473.263 35.2121 474.065 36.4451 475.245 37.267C476.439 38.089 477.996 38.5 479.919 38.5C482.106 38.5 483.843 38.036 485.129 37.108C486.428 36.1667 487.078 35.0398 487.078 33.7273C487.078 32.6667 486.707 31.7784 485.964 31.0625C485.222 30.3333 484.082 29.7898 482.544 29.4318L477.453 28.2386C474.655 27.5758 472.6 26.5483 471.288 25.1562C469.989 23.7509 469.339 21.9943 469.339 19.8864C469.339 18.1629 469.823 16.6383 470.791 15.3125C471.772 13.9867 473.104 12.946 474.788 12.1903C476.485 11.4347 478.407 11.0568 480.555 11.0568C483.578 11.0568 485.951 11.7197 487.674 13.0455C489.411 14.3712 490.644 16.1212 491.373 18.2955ZM498.995 42V11.4545H503.688V42H498.995ZM501.381 6.36364C500.466 6.36364 499.677 6.05208 499.015 5.42898C498.365 4.80587 498.04 4.05682 498.04 3.18182C498.04 2.30682 498.365 1.55776 499.015 0.934658C499.677 0.311553 500.466 0 501.381 0C502.296 0 503.078 0.311553 503.728 0.934658C504.391 1.55776 504.722 2.30682 504.722 3.18182C504.722 4.05682 504.391 4.80587 503.728 5.42898C503.078 6.05208 502.296 6.36364 501.381 6.36364ZM525.568 11.4545V15.4318H509.738V11.4545H525.568ZM514.352 4.13636H519.045V33.25C519.045 34.5758 519.237 35.5701 519.622 36.233C520.02 36.8826 520.523 37.3201 521.133 37.5455C521.756 37.7576 522.413 37.8636 523.102 37.8636C523.619 37.8636 524.043 37.8371 524.375 37.7841C524.706 37.7178 524.971 37.6648 525.17 37.625L526.125 41.8409C525.806 41.9602 525.362 42.0795 524.792 42.1989C524.222 42.3314 523.5 42.3977 522.625 42.3977C521.299 42.3977 520 42.1127 518.727 41.5426C517.467 40.9725 516.42 40.1042 515.585 38.9375C514.763 37.7708 514.352 36.2992 514.352 34.5227V4.13636ZM560.787 42.6364C557.923 42.6364 555.457 41.9602 553.389 40.608C551.321 39.2557 549.73 37.393 548.616 35.0199C547.502 32.6468 546.946 29.9356 546.946 26.8864C546.946 23.7841 547.516 21.0464 548.656 18.6733C549.809 16.2869 551.413 14.4242 553.468 13.0852C555.537 11.733 557.949 11.0568 560.707 11.0568C562.855 11.0568 564.79 11.4545 566.514 12.25C568.237 13.0455 569.649 14.1591 570.75 15.5909C571.85 17.0227 572.533 18.6932 572.798 20.6023H568.105C567.747 19.2102 566.951 17.9773 565.718 16.9034C564.499 15.8163 562.855 15.2727 560.787 15.2727C558.957 15.2727 557.353 15.75 555.974 16.7045C554.609 17.6458 553.541 18.9782 552.772 20.7017C552.017 22.4119 551.639 24.4205 551.639 26.7273C551.639 29.0871 552.01 31.142 552.752 32.892C553.508 34.642 554.569 36.0009 555.934 36.9688C557.313 37.9366 558.931 38.4205 560.787 38.4205C562.006 38.4205 563.113 38.2083 564.108 37.7841C565.102 37.3598 565.944 36.75 566.633 35.9545C567.323 35.1591 567.813 34.2045 568.105 33.0909H572.798C572.533 34.8939 571.877 36.518 570.829 37.9631C569.795 39.3949 568.423 40.535 566.713 41.3835C565.016 42.2188 563.04 42.6364 560.787 42.6364ZM588.647 42.7159C586.712 42.7159 584.955 42.3513 583.377 41.6222C581.8 40.8797 580.547 39.8125 579.619 38.4205C578.691 37.0152 578.227 35.3182 578.227 33.3295C578.227 31.5795 578.572 30.161 579.261 29.0739C579.95 27.9735 580.872 27.1117 582.025 26.4886C583.179 25.8655 584.451 25.4015 585.843 25.0966C587.249 24.7784 588.661 24.5265 590.079 24.3409C591.935 24.1023 593.44 23.9233 594.593 23.804C595.76 23.6714 596.609 23.4527 597.139 23.1477C597.682 22.8428 597.954 22.3125 597.954 21.5568V21.3977C597.954 19.4356 597.417 17.911 596.343 16.8239C595.283 15.7367 593.672 15.1932 591.511 15.1932C589.27 15.1932 587.514 15.6837 586.241 16.6648C584.968 17.6458 584.074 18.6932 583.556 19.8068L579.102 18.2159C579.897 16.3598 580.958 14.9148 582.284 13.8807C583.623 12.8333 585.081 12.1042 586.659 11.6932C588.25 11.2689 589.814 11.0568 591.352 11.0568C592.333 11.0568 593.46 11.1761 594.733 11.4148C596.019 11.6401 597.258 12.1108 598.451 12.8267C599.658 13.5426 600.659 14.6231 601.454 16.0682C602.25 17.5133 602.647 19.4489 602.647 21.875V42H597.954V37.8636H597.716C597.397 38.5265 596.867 39.2358 596.125 39.9915C595.382 40.7472 594.395 41.3902 593.162 41.9205C591.929 42.4508 590.424 42.7159 588.647 42.7159ZM589.363 38.5C591.219 38.5 592.784 38.1354 594.056 37.4062C595.342 36.6771 596.31 35.7358 596.96 34.5824C597.623 33.429 597.954 32.2159 597.954 30.9432V26.6477C597.755 26.8864 597.318 27.1051 596.642 27.304C595.979 27.4896 595.21 27.6553 594.335 27.8011C593.473 27.9337 592.631 28.053 591.809 28.1591C591.001 28.2519 590.344 28.3314 589.841 28.3977C588.621 28.5568 587.481 28.8153 586.42 29.1733C585.373 29.518 584.524 30.0417 583.875 30.7443C583.238 31.4337 582.92 32.375 582.92 33.5682C582.92 35.1989 583.523 36.4318 584.73 37.267C585.949 38.089 587.494 38.5 589.363 38.5ZM611.213 42V11.4545H615.748V16.0682H616.066C616.623 14.5568 617.63 13.3305 619.088 12.3892C620.547 11.4479 622.191 10.9773 624.02 10.9773C624.365 10.9773 624.796 10.9839 625.313 10.9972C625.83 11.0104 626.221 11.0303 626.486 11.0568V15.8295C626.327 15.7898 625.962 15.7301 625.392 15.6506C624.836 15.5578 624.246 15.5114 623.623 15.5114C622.138 15.5114 620.812 15.8229 619.645 16.446C618.492 17.0559 617.577 17.9044 616.901 18.9915C616.238 20.0653 615.907 21.2917 615.907 22.6705V42H611.213ZM642.654 42.6364C640.108 42.6364 637.861 41.9934 635.912 40.7074C633.963 39.4081 632.439 37.5786 631.338 35.2188C630.238 32.8456 629.688 30.0417 629.688 26.8068C629.688 23.5985 630.238 20.8144 631.338 18.4545C632.439 16.0947 633.97 14.2718 635.932 12.9858C637.894 11.6998 640.161 11.0568 642.733 11.0568C644.722 11.0568 646.293 11.3883 647.446 12.0511C648.613 12.7008 649.501 13.4432 650.111 14.2784C650.734 15.1004 651.218 15.7765 651.563 16.3068H651.961V1.27273H656.654V42H652.12V37.3068H651.563C651.218 37.8636 650.728 38.5663 650.091 39.4148C649.455 40.25 648.547 40.9991 647.367 41.6619C646.187 42.3116 644.616 42.6364 642.654 42.6364ZM643.29 38.4205C645.173 38.4205 646.764 37.9299 648.063 36.9489C649.362 35.9545 650.35 34.5824 651.026 32.8324C651.702 31.0691 652.04 29.0341 652.04 26.7273C652.04 24.447 651.709 22.4517 651.046 20.7415C650.383 19.018 649.402 17.679 648.103 16.7244C646.803 15.7566 645.199 15.2727 643.29 15.2727C641.301 15.2727 639.644 15.7831 638.319 16.804C637.006 17.8116 636.018 19.1837 635.355 20.9205C634.706 22.6439 634.381 24.5795 634.381 26.7273C634.381 28.9015 634.712 30.8769 635.375 32.6534C636.051 34.4167 637.046 35.822 638.358 36.8693C639.684 37.9034 641.328 38.4205 643.29 38.4205Z" fill="black"/>
<path d="M174.669 90H170.976L181.658 60.9091H185.294L195.976 90H192.283L183.589 65.5114H183.362L174.669 90ZM176.033 78.6364H190.919V81.7614H176.033V78.6364ZM203.405 60.9091V90H200.053V60.9091H203.405ZM218.692 90.4545C216.59 90.4545 214.777 89.9905 213.252 89.0625C211.737 88.125 210.567 86.8182 209.744 85.142C208.929 83.4564 208.522 81.4962 208.522 79.2614C208.522 77.0265 208.929 75.0568 209.744 73.3523C210.567 71.6383 211.713 70.303 213.181 69.3466C214.658 68.3807 216.382 67.8977 218.352 67.8977C219.488 67.8977 220.61 68.0871 221.718 68.4659C222.826 68.8447 223.835 69.4602 224.744 70.3125C225.653 71.1553 226.377 72.2727 226.917 73.6648C227.457 75.0568 227.727 76.7708 227.727 78.8068V80.2273H210.908V77.3295H224.317C224.317 76.0985 224.071 75 223.579 74.0341C223.096 73.0682 222.405 72.3059 221.505 71.7472C220.615 71.1884 219.564 70.9091 218.352 70.9091C217.016 70.9091 215.861 71.2405 214.886 71.9034C213.92 72.5568 213.176 73.4091 212.656 74.4602C212.135 75.5114 211.874 76.6383 211.874 77.8409V79.7727C211.874 81.4205 212.158 82.8172 212.727 83.9631C213.304 85.0994 214.104 85.9659 215.127 86.5625C216.15 87.1496 217.338 87.4432 218.692 87.4432C219.573 87.4432 220.369 87.3201 221.079 87.0739C221.799 86.8182 222.419 86.4394 222.94 85.9375C223.46 85.4261 223.863 84.7917 224.147 84.0341L227.386 84.9432C227.045 86.0417 226.472 87.0076 225.667 87.8409C224.862 88.6648 223.868 89.3087 222.684 89.7727C221.5 90.2273 220.17 90.4545 218.692 90.4545ZM235.951 82.0455L235.894 77.8977H236.576L246.121 68.1818H250.269L240.099 78.4659H239.815L235.951 82.0455ZM232.826 90V60.9091H236.178V90H232.826ZM246.69 90L238.167 79.2045L240.553 76.875L250.951 90H246.69ZM270.038 73.0682L267.027 73.9205C266.838 73.4186 266.558 72.9309 266.189 72.4574C265.829 71.9744 265.337 71.5767 264.712 71.2642C264.087 70.9517 263.286 70.7955 262.311 70.7955C260.976 70.7955 259.863 71.1032 258.973 71.7188C258.092 72.3248 257.652 73.0966 257.652 74.0341C257.652 74.8674 257.955 75.5256 258.561 76.0085C259.167 76.4915 260.114 76.8939 261.402 77.2159L264.641 78.0114C266.591 78.4848 268.045 79.2093 269.001 80.1847C269.958 81.1506 270.436 82.3958 270.436 83.9205C270.436 85.1705 270.076 86.2879 269.357 87.2727C268.646 88.2576 267.652 89.0341 266.374 89.6023C265.095 90.1705 263.608 90.4545 261.913 90.4545C259.688 90.4545 257.846 89.9716 256.388 89.0057C254.929 88.0398 254.006 86.6288 253.618 84.7727L256.8 83.9773C257.103 85.1515 257.676 86.0322 258.518 86.6193C259.371 87.2064 260.483 87.5 261.857 87.5C263.419 87.5 264.66 87.1686 265.578 86.5057C266.506 85.8333 266.97 85.0284 266.97 84.0909C266.97 83.3333 266.705 82.6989 266.175 82.1875C265.644 81.6667 264.83 81.2784 263.732 81.0227L260.095 80.1705C258.097 79.697 256.629 78.9631 255.692 77.9688C254.764 76.965 254.3 75.7102 254.3 74.2045C254.3 72.9735 254.645 71.8845 255.337 70.9375C256.037 69.9905 256.989 69.2472 258.192 68.7074C259.404 68.1676 260.777 67.8977 262.311 67.8977C264.47 67.8977 266.165 68.3712 267.396 69.3182C268.637 70.2652 269.518 71.5152 270.038 73.0682ZM281.903 90.5114C280.52 90.5114 279.265 90.2509 278.138 89.7301C277.012 89.1998 276.117 88.4375 275.454 87.4432C274.791 86.4394 274.46 85.2273 274.46 83.8068C274.46 82.5568 274.706 81.5436 275.198 80.767C275.691 79.9811 276.349 79.3655 277.173 78.9205C277.996 78.4754 278.906 78.1439 279.9 77.9261C280.904 77.6989 281.912 77.5189 282.925 77.3864C284.251 77.2159 285.326 77.0881 286.15 77.0028C286.983 76.9081 287.589 76.7519 287.968 76.5341C288.356 76.3163 288.55 75.9375 288.55 75.3977V75.2841C288.55 73.8826 288.167 72.7936 287.4 72.017C286.642 71.2405 285.492 70.8523 283.948 70.8523C282.348 70.8523 281.093 71.2027 280.184 71.9034C279.275 72.6042 278.636 73.3523 278.266 74.1477L275.085 73.0114C275.653 71.6856 276.41 70.6534 277.357 69.9148C278.314 69.1667 279.355 68.6458 280.482 68.3523C281.619 68.0492 282.736 67.8977 283.835 67.8977C284.535 67.8977 285.34 67.983 286.249 68.1534C287.168 68.3144 288.053 68.6506 288.906 69.1619C289.767 69.6733 290.482 70.4451 291.05 71.4773C291.619 72.5095 291.903 73.892 291.903 75.625V90H288.55V87.0455H288.38C288.153 87.5189 287.774 88.0256 287.244 88.5653C286.713 89.1051 286.008 89.5644 285.127 89.9432C284.246 90.322 283.172 90.5114 281.903 90.5114ZM282.414 87.5C283.74 87.5 284.857 87.2396 285.766 86.7188C286.685 86.1979 287.376 85.5256 287.84 84.7017C288.314 83.8778 288.55 83.0114 288.55 82.1023V79.0341C288.408 79.2045 288.096 79.3608 287.613 79.5028C287.139 79.6354 286.59 79.7538 285.965 79.858C285.35 79.9527 284.748 80.0379 284.161 80.1136C283.584 80.1799 283.115 80.2367 282.755 80.2841C281.884 80.3977 281.069 80.5824 280.312 80.8381C279.564 81.0843 278.958 81.4583 278.494 81.9602C278.039 82.4527 277.812 83.125 277.812 83.9773C277.812 85.142 278.243 86.0227 279.104 86.6193C279.976 87.2064 281.079 87.5 282.414 87.5ZM301.374 76.875V90H298.021V68.1818H301.26V71.5909H301.544C302.055 70.483 302.832 69.5928 303.874 68.9205C304.915 68.2386 306.26 67.8977 307.908 67.8977C309.385 67.8977 310.678 68.2008 311.786 68.8068C312.893 69.4034 313.755 70.3125 314.371 71.5341C314.986 72.7462 315.294 74.2803 315.294 76.1364V90H311.942V76.3636C311.942 74.6496 311.497 73.3144 310.607 72.358C309.716 71.392 308.495 70.9091 306.942 70.9091C305.872 70.9091 304.915 71.1411 304.072 71.6051C303.239 72.0691 302.581 72.7462 302.098 73.6364C301.615 74.5265 301.374 75.6061 301.374 76.875ZM329.658 90.4545C327.84 90.4545 326.235 89.9953 324.843 89.0767C323.451 88.1487 322.362 86.8419 321.576 85.1562C320.79 83.4612 320.397 81.4583 320.397 79.1477C320.397 76.8561 320.79 74.8674 321.576 73.1818C322.362 71.4962 323.456 70.1941 324.857 69.2756C326.259 68.357 327.878 67.8977 329.715 67.8977C331.136 67.8977 332.258 68.1345 333.082 68.608C333.915 69.072 334.549 69.6023 334.985 70.1989C335.43 70.786 335.776 71.2689 336.022 71.6477H336.306V60.9091H339.658V90H336.42V86.6477H336.022C335.776 87.0455 335.425 87.5473 334.971 88.1534C334.516 88.75 333.868 89.285 333.025 89.7585C332.182 90.2225 331.06 90.4545 329.658 90.4545ZM330.113 87.4432C331.458 87.4432 332.594 87.0928 333.522 86.392C334.45 85.6818 335.156 84.7017 335.638 83.4517C336.121 82.1922 336.363 80.7386 336.363 79.0909C336.363 77.4621 336.126 76.0369 335.653 74.8153C335.179 73.5843 334.478 72.6278 333.55 71.946C332.622 71.2547 331.477 70.9091 330.113 70.9091C328.692 70.9091 327.509 71.2737 326.562 72.0028C325.624 72.7225 324.919 73.7027 324.445 74.9432C323.981 76.1742 323.749 77.5568 323.749 79.0909C323.749 80.6439 323.986 82.0549 324.46 83.3239C324.942 84.5833 325.653 85.5871 326.59 86.3352C327.537 87.0739 328.711 87.4432 330.113 87.4432ZM346.263 90V68.1818H349.502V71.4773H349.729C350.127 70.3977 350.847 69.5218 351.888 68.8494C352.93 68.1771 354.104 67.8409 355.411 67.8409C355.657 67.8409 355.965 67.8456 356.335 67.8551C356.704 67.8646 356.983 67.8788 357.173 67.8977V71.3068C357.059 71.2784 356.799 71.2358 356.391 71.179C355.994 71.1127 355.572 71.0795 355.127 71.0795C354.067 71.0795 353.12 71.3021 352.286 71.7472C351.462 72.1828 350.809 72.7888 350.326 73.5653C349.853 74.3324 349.616 75.2083 349.616 76.1932V90H346.263ZM374.044 90H370.351L381.033 60.9091H384.669L395.351 90H391.658L382.964 65.5114H382.737L374.044 90ZM375.408 78.6364H390.294V81.7614H375.408V78.6364ZM399.428 98.1818V68.1818H402.666V71.6477H403.064C403.31 71.2689 403.651 70.786 404.087 70.1989C404.532 69.6023 405.166 69.072 405.99 68.608C406.823 68.1345 407.95 67.8977 409.371 67.8977C411.208 67.8977 412.827 68.357 414.229 69.2756C415.63 70.1941 416.724 71.4962 417.51 73.1818C418.296 74.8674 418.689 76.8561 418.689 79.1477C418.689 81.4583 418.296 83.4612 417.51 85.1562C416.724 86.8419 415.635 88.1487 414.243 89.0767C412.851 89.9953 411.246 90.4545 409.428 90.4545C408.026 90.4545 406.904 90.2225 406.061 89.7585C405.218 89.285 404.57 88.75 404.115 88.1534C403.661 87.5473 403.31 87.0455 403.064 86.6477H402.78V98.1818H399.428ZM402.723 79.0909C402.723 80.7386 402.964 82.1922 403.447 83.4517C403.93 84.7017 404.636 85.6818 405.564 86.392C406.492 87.0928 407.628 87.4432 408.973 87.4432C410.375 87.4432 411.544 87.0739 412.482 86.3352C413.429 85.5871 414.139 84.5833 414.612 83.3239C415.095 82.0549 415.337 80.6439 415.337 79.0909C415.337 77.5568 415.1 76.1742 414.626 74.9432C414.162 73.7027 413.457 72.7225 412.51 72.0028C411.572 71.2737 410.393 70.9091 408.973 70.9091C407.609 70.9091 406.464 71.2547 405.536 71.946C404.607 72.6278 403.907 73.5843 403.433 74.8153C402.96 76.0369 402.723 77.4621 402.723 79.0909ZM430.223 90.5114C428.84 90.5114 427.586 90.2509 426.459 89.7301C425.332 89.1998 424.437 88.4375 423.774 87.4432C423.111 86.4394 422.78 85.2273 422.78 83.8068C422.78 82.5568 423.026 81.5436 423.518 80.767C424.011 79.9811 424.669 79.3655 425.493 78.9205C426.317 78.4754 427.226 78.1439 428.22 77.9261C429.224 77.6989 430.232 77.5189 431.246 77.3864C432.571 77.2159 433.646 77.0881 434.47 77.0028C435.304 76.9081 435.91 76.7519 436.288 76.5341C436.677 76.3163 436.871 75.9375 436.871 75.3977V75.2841C436.871 73.8826 436.487 72.7936 435.72 72.017C434.963 71.2405 433.812 70.8523 432.268 70.8523C430.668 70.8523 429.413 71.2027 428.504 71.9034C427.595 72.6042 426.956 73.3523 426.587 74.1477L423.405 73.0114C423.973 71.6856 424.731 70.6534 425.678 69.9148C426.634 69.1667 427.676 68.6458 428.803 68.3523C429.939 68.0492 431.056 67.8977 432.155 67.8977C432.856 67.8977 433.661 67.983 434.57 68.1534C435.488 68.3144 436.374 68.6506 437.226 69.1619C438.088 69.6733 438.803 70.4451 439.371 71.4773C439.939 72.5095 440.223 73.892 440.223 75.625V90H436.871V87.0455H436.7C436.473 87.5189 436.094 88.0256 435.564 88.5653C435.034 89.1051 434.328 89.5644 433.447 89.9432C432.567 90.322 431.492 90.5114 430.223 90.5114ZM430.734 87.5C432.06 87.5 433.178 87.2396 434.087 86.7188C435.005 86.1979 435.696 85.5256 436.161 84.7017C436.634 83.8778 436.871 83.0114 436.871 82.1023V79.0341C436.729 79.2045 436.416 79.3608 435.933 79.5028C435.46 79.6354 434.911 79.7538 434.286 79.858C433.67 79.9527 433.069 80.0379 432.482 80.1136C431.904 80.1799 431.435 80.2367 431.075 80.2841C430.204 80.3977 429.39 80.5824 428.632 80.8381C427.884 81.0843 427.278 81.4583 426.814 81.9602C426.359 82.4527 426.132 83.125 426.132 83.9773C426.132 85.142 426.563 86.0227 427.425 86.6193C428.296 87.2064 429.399 87.5 430.734 87.5ZM446.342 90V68.1818H449.58V71.4773H449.808C450.205 70.3977 450.925 69.5218 451.967 68.8494C453.008 68.1771 454.183 67.8409 455.489 67.8409C455.736 67.8409 456.043 67.8456 456.413 67.8551C456.782 67.8646 457.061 67.8788 457.251 67.8977V71.3068C457.137 71.2784 456.877 71.2358 456.469 71.179C456.072 71.1127 455.65 71.0795 455.205 71.0795C454.145 71.0795 453.198 71.3021 452.364 71.7472C451.54 72.1828 450.887 72.7888 450.404 73.5653C449.931 74.3324 449.694 75.2083 449.694 76.1932V90H446.342ZM461.224 90V68.1818H464.577V90H461.224ZM462.929 64.5455C462.276 64.5455 461.712 64.3229 461.239 63.8778C460.775 63.4328 460.543 62.8977 460.543 62.2727C460.543 61.6477 460.775 61.1127 461.239 60.6676C461.712 60.2225 462.276 60 462.929 60C463.582 60 464.141 60.2225 464.605 60.6676C465.079 61.1127 465.315 61.6477 465.315 62.2727C465.315 62.8977 465.079 63.4328 464.605 63.8778C464.141 64.3229 463.582 64.5455 462.929 64.5455ZM474.069 76.875V90H470.717V68.1818H473.955V71.5909H474.239C474.751 70.483 475.527 69.5928 476.569 68.9205C477.611 68.2386 478.955 67.8977 480.603 67.8977C482.08 67.8977 483.373 68.2008 484.481 68.8068C485.589 69.4034 486.451 70.3125 487.066 71.5341C487.682 72.7462 487.989 74.2803 487.989 76.1364V90H484.637V76.3636C484.637 74.6496 484.192 73.3144 483.302 72.358C482.412 71.392 481.19 70.9091 479.637 70.9091C478.567 70.9091 477.611 71.1411 476.768 71.6051C475.934 72.0691 475.276 72.7462 474.793 73.6364C474.31 74.5265 474.069 75.6061 474.069 76.875Z" fill="black" fill-opacity="0.7"/>
</svg>
