<svg width="235" height="35" viewBox="0 0 235 35" fill="none" xmlns="http://www.w3.org/2000/svg">
<path d="M4.15146 15L0.174183 0.454545H1.96396L5.00373 12.3011H5.14577L8.24237 0.454545H10.231L13.3276 12.3011H13.4696L16.5094 0.454545H18.2992L14.3219 15H12.5037L9.2935 3.40909H9.17987L5.96964 15H4.15146ZM23.8248 15.2273C22.7736 15.2273 21.8669 14.9953 21.1046 14.5312C20.347 14.0625 19.7623 13.4091 19.3503 12.571C18.9431 11.7282 18.7395 10.7481 18.7395 9.63068C18.7395 8.51326 18.9431 7.52841 19.3503 6.67614C19.7623 5.81913 20.3352 5.15152 21.0691 4.6733C21.8077 4.19034 22.6694 3.94886 23.6543 3.94886C24.2225 3.94886 24.7836 4.04356 25.3375 4.23295C25.8915 4.42235 26.3958 4.73011 26.8503 5.15625C27.3049 5.57765 27.6671 6.13636 27.937 6.83239C28.2069 7.52841 28.3418 8.38542 28.3418 9.40341V10.1136H19.9327V8.66477H26.6373C26.6373 8.04924 26.5141 7.5 26.2679 7.01705C26.0265 6.53409 25.6808 6.15294 25.231 5.87358C24.7859 5.59422 24.2604 5.45455 23.6543 5.45455C22.9867 5.45455 22.409 5.62026 21.9213 5.9517C21.4384 6.27841 21.0667 6.70455 20.8063 7.23011C20.5459 7.75568 20.4157 8.31913 20.4157 8.92045V9.88636C20.4157 10.7102 20.5577 11.4086 20.8418 11.9815C21.1306 12.5497 21.5307 12.983 22.0421 13.2812C22.5534 13.5748 23.1477 13.7216 23.8248 13.7216C24.2651 13.7216 24.6628 13.66 25.0179 13.5369C25.3778 13.4091 25.6879 13.2197 25.9483 12.9688C26.2087 12.7131 26.41 12.3958 26.552 12.017L28.1713 12.4716C28.0009 13.0208 27.7144 13.5038 27.312 13.9205C26.9095 14.3324 26.4123 14.6544 25.8205 14.8864C25.2286 15.1136 24.5634 15.2273 23.8248 15.2273ZM32.5676 0.454545V15H30.8915V0.454545H32.5676ZM40.0694 15.2273C39.0467 15.2273 38.166 14.9858 37.4274 14.5028C36.6887 14.0199 36.1206 13.3546 35.7228 12.5071C35.3251 11.6596 35.1262 10.6913 35.1262 9.60227C35.1262 8.49432 35.3298 7.51657 35.737 6.66903C36.149 5.81676 36.7219 5.15152 37.4558 4.6733C38.1944 4.19034 39.0562 3.94886 40.041 3.94886C40.8081 3.94886 41.4993 4.09091 42.1149 4.375C42.7304 4.65909 43.2347 5.05682 43.6277 5.56818C44.0207 6.07955 44.2645 6.67614 44.3592 7.35795H42.6831C42.5552 6.8608 42.2711 6.42045 41.8308 6.03693C41.3952 5.64867 40.8081 5.45455 40.0694 5.45455C39.416 5.45455 38.8431 5.625 38.3507 5.96591C37.863 6.30208 37.4818 6.77794 37.2072 7.39347C36.9373 8.00426 36.8024 8.72159 36.8024 9.54545C36.8024 10.3883 36.935 11.1222 37.2001 11.7472C37.47 12.3722 37.8488 12.8575 38.3365 13.2031C38.8289 13.5488 39.4065 13.7216 40.0694 13.7216C40.505 13.7216 40.9004 13.6458 41.2555 13.4943C41.6106 13.3428 41.9113 13.125 42.1575 12.8409C42.4037 12.5568 42.5789 12.2159 42.6831 11.8182H44.3592C44.2645 12.4621 44.0301 13.0421 43.6561 13.5582C43.2868 14.0696 42.7967 14.4768 42.1859 14.7798C41.5798 15.0781 40.8743 15.2273 40.0694 15.2273ZM51.2413 15.2273C50.2565 15.2273 49.3923 14.9929 48.649 14.5241C47.9103 14.0554 47.3327 13.3996 46.916 12.5568C46.5041 11.714 46.2981 10.7292 46.2981 9.60227C46.2981 8.46591 46.5041 7.47396 46.916 6.62642C47.3327 5.77888 47.9103 5.12074 48.649 4.65199C49.3923 4.18324 50.2565 3.94886 51.2413 3.94886C52.2261 3.94886 53.0879 4.18324 53.8265 4.65199C54.5699 5.12074 55.1476 5.77888 55.5595 6.62642C55.9761 7.47396 56.1845 8.46591 56.1845 9.60227C56.1845 10.7292 55.9761 11.714 55.5595 12.5568C55.1476 13.3996 54.5699 14.0554 53.8265 14.5241C53.0879 14.9929 52.2261 15.2273 51.2413 15.2273ZM51.2413 13.7216C51.9894 13.7216 52.6049 13.5298 53.0879 13.1463C53.5708 12.7628 53.9283 12.2585 54.1603 11.6335C54.3923 11.0085 54.5083 10.3314 54.5083 9.60227C54.5083 8.87311 54.3923 8.19366 54.1603 7.56392C53.9283 6.93419 53.5708 6.42519 53.0879 6.03693C52.6049 5.64867 51.9894 5.45455 51.2413 5.45455C50.4932 5.45455 49.8777 5.64867 49.3947 6.03693C48.9118 6.42519 48.5543 6.93419 48.3223 7.56392C48.0903 8.19366 47.9743 8.87311 47.9743 9.60227C47.9743 10.3314 48.0903 11.0085 48.3223 11.6335C48.5543 12.2585 48.9118 12.7628 49.3947 13.1463C49.8777 13.5298 50.4932 13.7216 51.2413 13.7216ZM58.7431 15V4.09091H60.3624V5.79545H60.5044C60.7317 5.21307 61.0987 4.76089 61.6053 4.43892C62.1119 4.11222 62.7203 3.94886 63.4306 3.94886C64.1503 3.94886 64.7492 4.11222 65.2275 4.43892C65.7104 4.76089 66.0868 5.21307 66.3567 5.79545H66.4703C66.7497 5.23201 67.1687 4.78456 67.7275 4.45312C68.2862 4.11695 68.9561 3.94886 69.7374 3.94886C70.7128 3.94886 71.5106 4.25426 72.1309 4.86506C72.7511 5.47112 73.0613 6.41572 73.0613 7.69886V15H71.3851V7.69886C71.3851 6.89394 71.165 6.31866 70.7246 5.97301C70.2843 5.62737 69.7658 5.45455 69.1692 5.45455C68.4022 5.45455 67.8079 5.68655 67.3865 6.15057C66.9651 6.60985 66.7544 7.19223 66.7544 7.89773V15H65.0499V7.52841C65.0499 6.90814 64.8487 6.40862 64.4462 6.02983C64.0437 5.64631 63.5253 5.45455 62.8908 5.45455C62.4552 5.45455 62.048 5.57055 61.6692 5.80256C61.2952 6.03456 60.9921 6.35653 60.7601 6.76847C60.5328 7.17566 60.4192 7.64678 60.4192 8.18182V15H58.7431ZM80.6998 15.2273C79.6486 15.2273 78.7419 14.9953 77.9796 14.5312C77.222 14.0625 76.6373 13.4091 76.2253 12.571C75.8181 11.7282 75.6145 10.7481 75.6145 9.63068C75.6145 8.51326 75.8181 7.52841 76.2253 6.67614C76.6373 5.81913 77.2102 5.15152 77.9441 4.6733C78.6827 4.19034 79.5444 3.94886 80.5293 3.94886C81.0975 3.94886 81.6586 4.04356 82.2125 4.23295C82.7665 4.42235 83.2708 4.73011 83.7253 5.15625C84.1799 5.57765 84.5421 6.13636 84.812 6.83239C85.0819 7.52841 85.2168 8.38542 85.2168 9.40341V10.1136H76.8077V8.66477H83.5123C83.5123 8.04924 83.3891 7.5 83.1429 7.01705C82.9015 6.53409 82.5558 6.15294 82.106 5.87358C81.6609 5.59422 81.1354 5.45455 80.5293 5.45455C79.8617 5.45455 79.284 5.62026 78.7963 5.9517C78.3134 6.27841 77.9417 6.70455 77.6813 7.23011C77.4209 7.75568 77.2907 8.31913 77.2907 8.92045V9.88636C77.2907 10.7102 77.4327 11.4086 77.7168 11.9815C78.0056 12.5497 78.4057 12.983 78.9171 13.2812C79.4284 13.5748 80.0227 13.7216 80.6998 13.7216C81.1401 13.7216 81.5378 13.66 81.8929 13.5369C82.2528 13.4091 82.5629 13.2197 82.8233 12.9688C83.0837 12.7131 83.285 12.3958 83.427 12.017L85.0463 12.4716C84.8759 13.0208 84.5894 13.5038 84.187 13.9205C83.7845 14.3324 83.2873 14.6544 82.6955 14.8864C82.1036 15.1136 81.4384 15.2273 80.6998 15.2273ZM98.1358 4.09091V5.51136H92.4824V4.09091H98.1358ZM94.1301 1.47727H95.8063V11.875C95.8063 12.3485 95.8749 12.7036 96.0123 12.9403C96.1543 13.1723 96.3342 13.3286 96.552 13.4091C96.7746 13.4848 97.0089 13.5227 97.2551 13.5227C97.4398 13.5227 97.5913 13.5133 97.7097 13.4943C97.8281 13.4706 97.9228 13.4517 97.9938 13.4375L98.3347 14.9432C98.2211 14.9858 98.0624 15.0284 97.8588 15.071C97.6552 15.1184 97.3972 15.142 97.0847 15.142C96.6112 15.142 96.1472 15.0402 95.6926 14.8366C95.2428 14.633 94.8688 14.3229 94.5705 13.9062C94.2769 13.4896 94.1301 12.964 94.1301 12.3295V1.47727ZM104.972 15.2273C103.987 15.2273 103.123 14.9929 102.379 14.5241C101.641 14.0554 101.063 13.3996 100.646 12.5568C100.235 11.714 100.029 10.7292 100.029 9.60227C100.029 8.46591 100.235 7.47396 100.646 6.62642C101.063 5.77888 101.641 5.12074 102.379 4.65199C103.123 4.18324 103.987 3.94886 104.972 3.94886C105.957 3.94886 106.818 4.18324 107.557 4.65199C108.3 5.12074 108.878 5.77888 109.29 6.62642C109.707 7.47396 109.915 8.46591 109.915 9.60227C109.915 10.7292 109.707 11.714 109.29 12.5568C108.878 13.3996 108.3 14.0554 107.557 14.5241C106.818 14.9929 105.957 15.2273 104.972 15.2273ZM104.972 13.7216C105.72 13.7216 106.335 13.5298 106.818 13.1463C107.301 12.7628 107.659 12.2585 107.891 11.6335C108.123 11.0085 108.239 10.3314 108.239 9.60227C108.239 8.87311 108.123 8.19366 107.891 7.56392C107.659 6.93419 107.301 6.42519 106.818 6.03693C106.335 5.64867 105.72 5.45455 104.972 5.45455C104.224 5.45455 103.608 5.64867 103.125 6.03693C102.642 6.42519 102.285 6.93419 102.053 7.56392C101.821 8.19366 101.705 8.87311 101.705 9.60227C101.705 10.3314 101.821 11.0085 102.053 11.6335C102.285 12.2585 102.642 12.7628 103.125 13.1463C103.608 13.5298 104.224 13.7216 104.972 13.7216ZM118.099 15V4.09091H119.718V5.79545H119.86C120.087 5.21307 120.454 4.76089 120.961 4.43892C121.467 4.11222 122.076 3.94886 122.786 3.94886C123.506 3.94886 124.105 4.11222 124.583 4.43892C125.066 4.76089 125.442 5.21307 125.712 5.79545H125.826C126.105 5.23201 126.524 4.78456 127.083 4.45312C127.642 4.11695 128.312 3.94886 129.093 3.94886C130.068 3.94886 130.866 4.25426 131.486 4.86506C132.107 5.47112 132.417 6.41572 132.417 7.69886V15H130.741V7.69886C130.741 6.89394 130.52 6.31866 130.08 5.97301C129.64 5.62737 129.121 5.45455 128.525 5.45455C127.758 5.45455 127.163 5.68655 126.742 6.15057C126.321 6.60985 126.11 7.19223 126.11 7.89773V15H124.405V7.52841C124.405 6.90814 124.204 6.40862 123.802 6.02983C123.399 5.64631 122.881 5.45455 122.246 5.45455C121.811 5.45455 121.403 5.57055 121.025 5.80256C120.651 6.03456 120.348 6.35653 120.116 6.76847C119.888 7.17566 119.775 7.64678 119.775 8.18182V15H118.099ZM136.17 19.0909C135.886 19.0909 135.633 19.0672 135.41 19.0199C135.188 18.9773 135.034 18.9347 134.949 18.892L135.375 17.4148C135.782 17.5189 136.142 17.5568 136.454 17.5284C136.767 17.5 137.044 17.3603 137.285 17.1094C137.532 16.8632 137.756 16.4631 137.96 15.9091L138.273 15.0568L134.238 4.09091H136.057L139.068 12.7841H139.182L142.193 4.09091H144.011L139.381 16.5909C139.172 17.1544 138.914 17.6207 138.606 17.9901C138.299 18.3641 137.941 18.6411 137.534 18.821C137.131 19.0009 136.677 19.0909 136.17 19.0909ZM160.769 4.09091L156.735 15H155.03L150.996 4.09091H152.814L155.826 12.7841H155.939L158.951 4.09091H160.769ZM162.981 15V4.09091H164.657V15H162.981ZM163.834 2.27273C163.507 2.27273 163.225 2.16146 162.988 1.93892C162.756 1.71638 162.64 1.44886 162.64 1.13636C162.64 0.823864 162.756 0.556345 162.988 0.333806C163.225 0.111269 163.507 0 163.834 0C164.16 0 164.44 0.111269 164.672 0.333806C164.908 0.556345 165.027 0.823864 165.027 1.13636C165.027 1.44886 164.908 1.71638 164.672 1.93892C164.44 2.16146 164.16 2.27273 163.834 2.27273ZM175.455 6.53409L173.949 6.96023C173.854 6.70928 173.715 6.46544 173.53 6.22869C173.35 5.98722 173.104 5.78835 172.791 5.6321C172.479 5.47585 172.079 5.39773 171.591 5.39773C170.923 5.39773 170.367 5.55161 169.922 5.85938C169.482 6.16241 169.262 6.5483 169.262 7.01705C169.262 7.43371 169.413 7.76278 169.716 8.00426C170.019 8.24574 170.493 8.44697 171.137 8.60795L172.756 9.00568C173.731 9.24242 174.458 9.60464 174.936 10.0923C175.414 10.5753 175.654 11.1979 175.654 11.9602C175.654 12.5852 175.474 13.1439 175.114 13.6364C174.759 14.1288 174.262 14.517 173.622 14.8011C172.983 15.0852 172.24 15.2273 171.392 15.2273C170.28 15.2273 169.359 14.9858 168.629 14.5028C167.9 14.0199 167.439 13.3144 167.244 12.3864L168.835 11.9886C168.987 12.5758 169.273 13.0161 169.695 13.3097C170.121 13.6032 170.677 13.75 171.364 13.75C172.145 13.75 172.765 13.5843 173.225 13.2528C173.689 12.9167 173.921 12.5142 173.921 12.0455C173.921 11.6667 173.788 11.3494 173.523 11.0938C173.258 10.8333 172.851 10.6392 172.301 10.5114L170.483 10.0852C169.484 9.84848 168.75 9.48153 168.281 8.98438C167.817 8.48248 167.585 7.85511 167.585 7.10227C167.585 6.48674 167.758 5.94223 168.104 5.46875C168.454 4.99527 168.93 4.62358 169.531 4.35369C170.137 4.08381 170.824 3.94886 171.591 3.94886C172.671 3.94886 173.518 4.18561 174.134 4.65909C174.754 5.13258 175.194 5.75758 175.455 6.53409ZM178.177 15V4.09091H179.853V15H178.177ZM179.029 2.27273C178.702 2.27273 178.421 2.16146 178.184 1.93892C177.952 1.71638 177.836 1.44886 177.836 1.13636C177.836 0.823864 177.952 0.556345 178.184 0.333806C178.421 0.111269 178.702 0 179.029 0C179.356 0 179.635 0.111269 179.867 0.333806C180.104 0.556345 180.222 0.823864 180.222 1.13636C180.222 1.44886 180.104 1.71638 179.867 1.93892C179.635 2.16146 179.356 2.27273 179.029 2.27273ZM187.667 4.09091V5.51136H182.014V4.09091H187.667ZM183.661 1.47727H185.338V11.875C185.338 12.3485 185.406 12.7036 185.544 12.9403C185.686 13.1723 185.865 13.3286 186.083 13.4091C186.306 13.4848 186.54 13.5227 186.786 13.5227C186.971 13.5227 187.123 13.5133 187.241 13.4943C187.359 13.4706 187.454 13.4517 187.525 13.4375L187.866 14.9432C187.752 14.9858 187.594 15.0284 187.39 15.071C187.186 15.1184 186.928 15.142 186.616 15.142C186.142 15.142 185.678 15.0402 185.224 14.8366C184.774 14.633 184.4 14.3229 184.102 13.9062C183.808 13.4896 183.661 12.964 183.661 12.3295V1.47727ZM200.245 15.2273C199.222 15.2273 198.342 14.9858 197.603 14.5028C196.865 14.0199 196.296 13.3546 195.899 12.5071C195.501 11.6596 195.302 10.6913 195.302 9.60227C195.302 8.49432 195.506 7.51657 195.913 6.66903C196.325 5.81676 196.898 5.15152 197.632 4.6733C198.37 4.19034 199.232 3.94886 200.217 3.94886C200.984 3.94886 201.675 4.09091 202.291 4.375C202.906 4.65909 203.41 5.05682 203.803 5.56818C204.196 6.07955 204.44 6.67614 204.535 7.35795H202.859C202.731 6.8608 202.447 6.42045 202.007 6.03693C201.571 5.64867 200.984 5.45455 200.245 5.45455C199.592 5.45455 199.019 5.625 198.526 5.96591C198.039 6.30208 197.658 6.77794 197.383 7.39347C197.113 8.00426 196.978 8.72159 196.978 9.54545C196.978 10.3883 197.111 11.1222 197.376 11.7472C197.646 12.3722 198.025 12.8575 198.512 13.2031C199.005 13.5488 199.582 13.7216 200.245 13.7216C200.681 13.7216 201.076 13.6458 201.431 13.4943C201.786 13.3428 202.087 13.125 202.333 12.8409C202.579 12.5568 202.755 12.2159 202.859 11.8182H204.535C204.44 12.4621 204.206 13.0421 203.832 13.5582C203.463 14.0696 202.972 14.4768 202.362 14.7798C201.756 15.0781 201.05 15.2273 200.245 15.2273ZM210.195 15.2557C209.504 15.2557 208.877 15.1255 208.313 14.8651C207.75 14.5999 207.302 14.2188 206.971 13.7216C206.64 13.2197 206.474 12.6136 206.474 11.9034C206.474 11.2784 206.597 10.7718 206.843 10.3835C207.089 9.99053 207.419 9.68276 207.83 9.46023C208.242 9.23769 208.697 9.07197 209.194 8.96307C209.696 8.84943 210.2 8.75947 210.707 8.69318C211.37 8.60795 211.907 8.54403 212.319 8.50142C212.736 8.45407 213.039 8.37595 213.228 8.26705C213.422 8.15814 213.519 7.96875 213.519 7.69886V7.64205C213.519 6.94129 213.328 6.39678 212.944 6.00852C212.565 5.62027 211.99 5.42614 211.218 5.42614C210.418 5.42614 209.791 5.60133 209.336 5.9517C208.882 6.30208 208.562 6.67614 208.377 7.07386L206.786 6.50568C207.07 5.8428 207.449 5.3267 207.923 4.95739C208.401 4.58333 208.922 4.32292 209.485 4.17614C210.053 4.02462 210.612 3.94886 211.161 3.94886C211.512 3.94886 211.914 3.99148 212.369 4.0767C212.828 4.1572 213.271 4.32528 213.697 4.58097C214.128 4.83665 214.485 5.22254 214.769 5.73864C215.053 6.25473 215.195 6.94602 215.195 7.8125V15H213.519V13.5227H213.434C213.32 13.7595 213.131 14.0128 212.866 14.2827C212.601 14.5526 212.248 14.7822 211.808 14.9716C211.367 15.161 210.83 15.2557 210.195 15.2557ZM210.451 13.75C211.114 13.75 211.673 13.6198 212.127 13.3594C212.587 13.099 212.932 12.7628 213.164 12.3509C213.401 11.9389 213.519 11.5057 213.519 11.0511V9.51705C213.448 9.60227 213.292 9.6804 213.051 9.75142C212.814 9.81771 212.539 9.87689 212.227 9.92898C211.919 9.97633 211.618 10.0189 211.325 10.0568C211.036 10.09 210.802 10.1184 210.622 10.142C210.186 10.1989 209.779 10.2912 209.4 10.419C209.026 10.5421 208.723 10.7292 208.491 10.9801C208.264 11.2263 208.15 11.5625 208.15 11.9886C208.15 12.571 208.365 13.0114 208.796 13.3097C209.232 13.6032 209.784 13.75 210.451 13.75ZM218.255 15V4.09091H219.874V5.73864H219.988C220.187 5.19886 220.546 4.76089 221.067 4.42472C221.588 4.08854 222.175 3.92045 222.829 3.92045C222.952 3.92045 223.106 3.92282 223.29 3.92756C223.475 3.93229 223.615 3.93939 223.709 3.94886V5.65341C223.653 5.6392 223.522 5.6179 223.319 5.58949C223.12 5.55634 222.909 5.53977 222.687 5.53977C222.156 5.53977 221.683 5.65104 221.266 5.87358C220.854 6.09138 220.528 6.39441 220.286 6.78267C220.049 7.16619 219.931 7.60417 219.931 8.09659V15H218.255ZM229.483 15.2273C228.574 15.2273 227.772 14.9976 227.076 14.5384C226.38 14.0743 225.835 13.4209 225.442 12.5781C225.049 11.7306 224.853 10.7292 224.853 9.57386C224.853 8.42803 225.049 7.43371 225.442 6.59091C225.835 5.74811 226.382 5.09706 227.083 4.63778C227.784 4.1785 228.593 3.94886 229.512 3.94886C230.222 3.94886 230.783 4.06723 231.195 4.30398C231.612 4.53598 231.929 4.80114 232.147 5.09943C232.369 5.39299 232.542 5.63447 232.665 5.82386H232.807V0.454545H234.483V15H232.864V13.3239H232.665C232.542 13.5227 232.367 13.7737 232.14 14.0767C231.912 14.375 231.588 14.6425 231.167 14.8793C230.745 15.1113 230.184 15.2273 229.483 15.2273ZM229.711 13.7216C230.383 13.7216 230.951 13.5464 231.415 13.196C231.879 12.8409 232.232 12.3509 232.474 11.7259C232.715 11.0961 232.836 10.3693 232.836 9.54545C232.836 8.73106 232.717 8.01847 232.481 7.40767C232.244 6.79214 231.894 6.31392 231.43 5.97301C230.965 5.62737 230.393 5.45455 229.711 5.45455C229.001 5.45455 228.409 5.63684 227.935 6.00142C227.466 6.36127 227.114 6.85133 226.877 7.47159C226.645 8.08712 226.529 8.77841 226.529 9.54545C226.529 10.322 226.647 11.0275 226.884 11.6619C227.126 12.2917 227.481 12.7936 227.949 13.1676C228.423 13.5369 229.01 13.7216 229.711 13.7216Z" fill="black"/>
<path d="M63.4592 32H62.1665L65.9052 21.8182H67.1779L70.9165 32H69.6239L66.5813 23.429H66.5018L63.4592 32ZM63.9364 28.0227H69.1467V29.1165H63.9364V28.0227ZM73.5167 21.8182V32H72.3434V21.8182H73.5167ZM78.8674 32.1591C78.1316 32.1591 77.4969 31.9967 76.9632 31.6719C76.4329 31.3438 76.0236 30.8864 75.7353 30.2997C75.4502 29.7098 75.3077 29.0237 75.3077 28.2415C75.3077 27.4593 75.4502 26.7699 75.7353 26.1733C76.0236 25.5734 76.4247 25.1061 76.9384 24.7713C77.4554 24.4332 78.0587 24.2642 78.748 24.2642C79.1458 24.2642 79.5385 24.3305 79.9263 24.4631C80.3141 24.5956 80.6671 24.8111 80.9853 25.1094C81.3034 25.4044 81.557 25.7955 81.7459 26.2827C81.9348 26.7699 82.0293 27.3698 82.0293 28.0824V28.5795H76.1429V27.5653H80.8361C80.8361 27.1345 80.7499 26.75 80.5776 26.4119C80.4086 26.0739 80.1666 25.8071 79.8517 25.6115C79.5402 25.416 79.1723 25.3182 78.748 25.3182C78.2807 25.3182 77.8764 25.4342 77.535 25.6662C77.1969 25.8949 76.9367 26.1932 76.7544 26.5611C76.5721 26.929 76.481 27.3234 76.481 27.7443V28.4205C76.481 28.9972 76.5804 29.486 76.7793 29.8871C76.9815 30.2848 77.2615 30.5881 77.6195 30.7969C77.9775 31.0024 78.3934 31.1051 78.8674 31.1051C79.1756 31.1051 79.454 31.062 79.7026 30.9759C79.9545 30.8864 80.1716 30.7538 80.3539 30.5781C80.5362 30.3991 80.677 30.1771 80.7765 29.9119L81.91 30.2301C81.7907 30.6146 81.5901 30.9527 81.3084 31.2443C81.0267 31.5327 80.6787 31.758 80.2644 31.9205C79.8501 32.0795 79.3844 32.1591 78.8674 32.1591ZM84.9078 29.2159L84.888 27.7642H85.1266L88.4675 24.3636H89.9192L86.3596 27.9631H86.2601L84.9078 29.2159ZM83.8141 32V21.8182H84.9874V32H83.8141ZM88.6664 32L85.6834 28.2216L86.5186 27.4062L90.1578 32H88.6664ZM96.8384 26.0739L95.7844 26.3722C95.7182 26.1965 95.6204 26.0258 95.4911 25.8601C95.3652 25.6911 95.1928 25.5518 94.9741 25.4425C94.7553 25.3331 94.4753 25.2784 94.1339 25.2784C93.6665 25.2784 93.2771 25.3861 92.9656 25.6016C92.6573 25.8137 92.5032 26.0838 92.5032 26.4119C92.5032 26.7036 92.6093 26.9339 92.8214 27.103C93.0335 27.272 93.3649 27.4129 93.8157 27.5256L94.9492 27.804C95.632 27.9697 96.1407 28.2232 96.4755 28.5646C96.8103 28.9027 96.9776 29.3385 96.9776 29.8722C96.9776 30.3097 96.8517 30.7008 96.5998 31.0455C96.3512 31.3902 96.0032 31.6619 95.5558 31.8608C95.1083 32.0597 94.5879 32.1591 93.9947 32.1591C93.2158 32.1591 92.5711 31.9901 92.0607 31.652C91.5503 31.3139 91.2272 30.8201 91.0913 30.1705L92.2049 29.892C92.311 30.303 92.5115 30.6113 92.8065 30.8168C93.1048 31.0223 93.4942 31.125 93.9748 31.125C94.5217 31.125 94.9558 31.009 95.2773 30.777C95.6022 30.5417 95.7646 30.2599 95.7646 29.9318C95.7646 29.6667 95.6718 29.4446 95.4862 29.2656C95.3005 29.0833 95.0155 28.9474 94.631 28.858L93.3583 28.5597C92.659 28.3939 92.1452 28.1371 91.8171 27.7891C91.4923 27.4377 91.3299 26.9986 91.3299 26.4716C91.3299 26.0407 91.4509 25.6596 91.6928 25.3281C91.9381 24.9967 92.2712 24.7365 92.6921 24.5476C93.1164 24.3587 93.5969 24.2642 94.1339 24.2642C94.8896 24.2642 95.4828 24.4299 95.9137 24.7614C96.3479 25.0928 96.6561 25.5303 96.8384 26.0739ZM100.991 32.179C100.507 32.179 100.068 32.0878 99.6735 31.9055C99.2791 31.7199 98.9658 31.4531 98.7338 31.1051C98.5018 30.7538 98.3858 30.3295 98.3858 29.8324C98.3858 29.3949 98.472 29.0402 98.6444 28.7685C98.8167 28.4934 99.0471 28.2779 99.3354 28.1222C99.6238 27.9664 99.9419 27.8504 100.29 27.7741C100.641 27.6946 100.994 27.6316 101.349 27.5852C101.813 27.5256 102.189 27.4808 102.477 27.451C102.769 27.4179 102.981 27.3632 103.114 27.2869C103.25 27.2107 103.318 27.0781 103.318 26.8892V26.8494C103.318 26.3589 103.183 25.9777 102.915 25.706C102.65 25.4342 102.247 25.2983 101.707 25.2983C101.147 25.2983 100.708 25.4209 100.389 25.6662C100.071 25.9115 99.8475 26.1733 99.7182 26.4517L98.6046 26.054C98.8034 25.59 99.0686 25.2287 99.4 24.9702C99.7348 24.7083 100.099 24.526 100.494 24.4233C100.892 24.3172 101.283 24.2642 101.667 24.2642C101.912 24.2642 102.194 24.294 102.512 24.3537C102.834 24.41 103.144 24.5277 103.442 24.7067C103.744 24.8857 103.994 25.1558 104.193 25.517C104.392 25.8783 104.491 26.3622 104.491 26.9688V32H103.318V30.9659H103.258C103.178 31.1316 103.046 31.3089 102.86 31.4979C102.675 31.6868 102.428 31.8475 102.119 31.9801C101.811 32.1127 101.435 32.179 100.991 32.179ZM101.17 31.125C101.634 31.125 102.025 31.0339 102.343 30.8516C102.665 30.6693 102.907 30.4339 103.069 30.1456C103.235 29.8572 103.318 29.554 103.318 29.2358V28.1619C103.268 28.2216 103.159 28.2763 102.99 28.326C102.824 28.3724 102.632 28.4138 102.413 28.4503C102.197 28.4834 101.987 28.5133 101.781 28.5398C101.579 28.563 101.415 28.5829 101.289 28.5994C100.984 28.6392 100.699 28.7038 100.434 28.7933C100.172 28.8795 99.9602 29.0104 99.7978 29.1861C99.6387 29.3584 99.5591 29.5937 99.5591 29.892C99.5591 30.2997 99.7099 30.608 100.012 30.8168C100.316 31.0223 100.703 31.125 101.17 31.125ZM107.806 27.4062V32H106.632V24.3636H107.766V25.5568H107.865C108.044 25.169 108.316 24.8575 108.681 24.6222C109.045 24.3835 109.516 24.2642 110.093 24.2642C110.61 24.2642 111.062 24.3703 111.45 24.5824C111.838 24.7912 112.139 25.1094 112.355 25.5369C112.57 25.9612 112.678 26.4981 112.678 27.1477V32H111.505V27.2273C111.505 26.6274 111.349 26.16 111.037 25.8253C110.726 25.4872 110.298 25.3182 109.755 25.3182C109.38 25.3182 109.045 25.3994 108.75 25.5618C108.459 25.7242 108.228 25.9612 108.059 26.2727C107.89 26.5843 107.806 26.9621 107.806 27.4062ZM117.705 32.1591C117.069 32.1591 116.507 31.9983 116.02 31.6768C115.533 31.352 115.152 30.8946 114.877 30.3047C114.602 29.7114 114.464 29.0104 114.464 28.2017C114.464 27.3996 114.602 26.7036 114.877 26.1136C115.152 25.5237 115.535 25.0679 116.025 24.7464C116.516 24.425 117.082 24.2642 117.725 24.2642C118.222 24.2642 118.615 24.3471 118.904 24.5128C119.195 24.6752 119.417 24.8608 119.57 25.0696C119.726 25.2751 119.847 25.4441 119.933 25.5767H120.032V21.8182H121.205V32H120.072V30.8267H119.933C119.847 30.9659 119.724 31.1416 119.565 31.3537C119.406 31.5625 119.179 31.7498 118.884 31.9155C118.589 32.0779 118.196 32.1591 117.705 32.1591ZM117.865 31.1051C118.335 31.1051 118.733 30.9825 119.058 30.7372C119.383 30.4886 119.629 30.1456 119.798 29.7081C119.968 29.2673 120.052 28.7585 120.052 28.1818C120.052 27.6117 119.969 27.1129 119.803 26.6854C119.638 26.2545 119.392 25.9197 119.068 25.6811C118.743 25.4392 118.342 25.3182 117.865 25.3182C117.367 25.3182 116.953 25.4458 116.622 25.701C116.294 25.9529 116.047 26.2959 115.881 26.7301C115.718 27.161 115.637 27.6449 115.637 28.1818C115.637 28.7254 115.72 29.2192 115.886 29.6634C116.055 30.1042 116.303 30.4555 116.632 30.7173C116.963 30.9759 117.374 31.1051 117.865 31.1051ZM123.517 32V24.3636H124.651V25.517H124.73C124.869 25.1392 125.121 24.8326 125.486 24.5973C125.851 24.362 126.262 24.2443 126.719 24.2443C126.805 24.2443 126.913 24.246 127.042 24.2493C127.171 24.2526 127.269 24.2576 127.335 24.2642V25.4574C127.296 25.4474 127.204 25.4325 127.062 25.4126C126.923 25.3894 126.775 25.3778 126.619 25.3778C126.248 25.3778 125.917 25.4557 125.625 25.6115C125.337 25.764 125.108 25.9761 124.939 26.2479C124.773 26.5163 124.691 26.8229 124.691 27.1676V32H123.517ZM133.24 32H131.948L135.686 21.8182H136.959L140.698 32H139.405L136.363 23.429H136.283L133.24 32ZM133.718 28.0227H138.928V29.1165H133.718V28.0227ZM142.125 34.8636V24.3636H143.258V25.5767H143.397C143.484 25.4441 143.603 25.2751 143.755 25.0696C143.911 24.8608 144.133 24.6752 144.422 24.5128C144.713 24.3471 145.108 24.2642 145.605 24.2642C146.248 24.2642 146.815 24.425 147.305 24.7464C147.796 25.0679 148.178 25.5237 148.453 26.1136C148.729 26.7036 148.866 27.3996 148.866 28.2017C148.866 29.0104 148.729 29.7114 148.453 30.3047C148.178 30.8946 147.797 31.352 147.31 31.6768C146.823 31.9983 146.261 32.1591 145.625 32.1591C145.134 32.1591 144.741 32.0779 144.446 31.9155C144.151 31.7498 143.924 31.5625 143.765 31.3537C143.606 31.1416 143.484 30.9659 143.397 30.8267H143.298V34.8636H142.125ZM143.278 28.1818C143.278 28.7585 143.363 29.2673 143.532 29.7081C143.701 30.1456 143.948 30.4886 144.272 30.7372C144.597 30.9825 144.995 31.1051 145.466 31.1051C145.956 31.1051 146.365 30.9759 146.694 30.7173C147.025 30.4555 147.274 30.1042 147.439 29.6634C147.608 29.2192 147.693 28.7254 147.693 28.1818C147.693 27.6449 147.61 27.161 147.444 26.7301C147.282 26.2959 147.035 25.9529 146.703 25.701C146.375 25.4458 145.963 25.3182 145.466 25.3182C144.988 25.3182 144.587 25.4392 144.262 25.6811C143.938 25.9197 143.692 26.2545 143.527 26.6854C143.361 27.1129 143.278 27.6117 143.278 28.1818ZM152.903 32.179C152.419 32.179 151.98 32.0878 151.586 31.9055C151.191 31.7199 150.878 31.4531 150.646 31.1051C150.414 30.7538 150.298 30.3295 150.298 29.8324C150.298 29.3949 150.384 29.0402 150.556 28.7685C150.729 28.4934 150.959 28.2779 151.248 28.1222C151.536 27.9664 151.854 27.8504 152.202 27.7741C152.553 27.6946 152.906 27.6316 153.261 27.5852C153.725 27.5256 154.101 27.4808 154.39 27.451C154.681 27.4179 154.893 27.3632 155.026 27.2869C155.162 27.2107 155.23 27.0781 155.23 26.8892V26.8494C155.23 26.3589 155.096 25.9777 154.827 25.706C154.562 25.4342 154.159 25.2983 153.619 25.2983C153.059 25.2983 152.62 25.4209 152.301 25.6662C151.983 25.9115 151.76 26.1733 151.63 26.4517L150.517 26.054C150.716 25.59 150.981 25.2287 151.312 24.9702C151.647 24.7083 152.011 24.526 152.406 24.4233C152.804 24.3172 153.195 24.2642 153.579 24.2642C153.824 24.2642 154.106 24.294 154.424 24.3537C154.746 24.41 155.056 24.5277 155.354 24.7067C155.656 24.8857 155.906 25.1558 156.105 25.517C156.304 25.8783 156.403 26.3622 156.403 26.9688V32H155.23V30.9659H155.17C155.091 31.1316 154.958 31.3089 154.772 31.4979C154.587 31.6868 154.34 31.8475 154.032 31.9801C153.723 32.1127 153.347 32.179 152.903 32.179ZM153.082 31.125C153.546 31.125 153.937 31.0339 154.255 30.8516C154.577 30.6693 154.819 30.4339 154.981 30.1456C155.147 29.8572 155.23 29.554 155.23 29.2358V28.1619C155.18 28.2216 155.071 28.2763 154.902 28.326C154.736 28.3724 154.544 28.4138 154.325 28.4503C154.109 28.4834 153.899 28.5133 153.694 28.5398C153.491 28.563 153.327 28.5829 153.201 28.5994C152.896 28.6392 152.611 28.7038 152.346 28.7933C152.084 28.8795 151.872 29.0104 151.71 29.1861C151.551 29.3584 151.471 29.5937 151.471 29.892C151.471 30.2997 151.622 30.608 151.924 30.8168C152.229 31.0223 152.615 31.125 153.082 31.125ZM158.545 32V24.3636H159.678V25.517H159.758C159.897 25.1392 160.149 24.8326 160.513 24.5973C160.878 24.362 161.289 24.2443 161.746 24.2443C161.832 24.2443 161.94 24.246 162.069 24.2493C162.199 24.2526 162.296 24.2576 162.363 24.2642V25.4574C162.323 25.4474 162.232 25.4325 162.089 25.4126C161.95 25.3894 161.803 25.3778 161.647 25.3778C161.276 25.3778 160.944 25.4557 160.653 25.6115C160.364 25.764 160.135 25.9761 159.966 26.2479C159.801 26.5163 159.718 26.8229 159.718 27.1676V32H158.545ZM163.754 32V24.3636H164.927V32H163.754ZM164.35 23.0909C164.121 23.0909 163.924 23.013 163.759 22.8572C163.596 22.7015 163.515 22.5142 163.515 22.2955C163.515 22.0767 163.596 21.8894 163.759 21.7337C163.924 21.5779 164.121 21.5 164.35 21.5C164.579 21.5 164.774 21.5779 164.937 21.7337C165.103 21.8894 165.185 22.0767 165.185 22.2955C165.185 22.5142 165.103 22.7015 164.937 22.8572C164.774 23.013 164.579 23.0909 164.35 23.0909ZM168.249 27.4062V32H167.076V24.3636H168.209V25.5568H168.309C168.488 25.169 168.76 24.8575 169.124 24.6222C169.489 24.3835 169.959 24.2642 170.536 24.2642C171.053 24.2642 171.506 24.3703 171.893 24.5824C172.281 24.7912 172.583 25.1094 172.798 25.5369C173.014 25.9612 173.121 26.4981 173.121 27.1477V32H171.948V27.2273C171.948 26.6274 171.792 26.16 171.481 25.8253C171.169 25.4872 170.742 25.3182 170.198 25.3182C169.823 25.3182 169.489 25.3994 169.194 25.5618C168.902 25.7242 168.672 25.9612 168.503 26.2727C168.334 26.5843 168.249 26.9621 168.249 27.4062Z" fill="black" fill-opacity="0.7"/>
</svg>
